<svg width="53" height="38" viewBox="0 0 53 38" fill="none" xmlns="http://www.w3.org/2000/svg">
<path d="M6.68945 32.3623C6.68945 33.1663 6.54134 33.8385 6.24512 34.3789C5.94889 34.916 5.51921 35.3213 4.95605 35.5947C4.39616 35.8649 3.71582 36 2.91504 36H0.957031V28.8613H3.13477C3.86393 28.8613 4.49382 28.9948 5.02441 29.2617C5.55501 29.5254 5.96517 29.9176 6.25488 30.4385C6.5446 30.9561 6.68945 31.5973 6.68945 32.3623ZM5.63965 32.3916C5.63965 31.7796 5.54036 31.2751 5.3418 30.8779C5.14323 30.4808 4.85189 30.1862 4.46777 29.9941C4.08366 29.7988 3.61328 29.7012 3.05664 29.7012H1.95801V35.1504H2.88086C3.80208 35.1504 4.49219 34.9193 4.95117 34.457C5.41016 33.9948 5.63965 33.3063 5.63965 32.3916ZM10.1904 30.5264C10.8545 30.5264 11.3509 30.6745 11.6797 30.9707C12.0085 31.2637 12.1729 31.7275 12.1729 32.3623V36H11.4697L11.2793 35.2188H11.2402C11.0905 35.4141 10.9342 35.5768 10.7715 35.707C10.6087 35.8372 10.4199 35.9349 10.2051 36C9.99349 36.0651 9.7347 36.0977 9.42871 36.0977C9.10319 36.0977 8.81348 36.0391 8.55957 35.9219C8.30566 35.8047 8.10547 35.6289 7.95898 35.3945C7.81576 35.1569 7.74414 34.8558 7.74414 34.4912C7.74414 33.9443 7.9541 33.5293 8.37402 33.2461C8.79395 32.9629 9.43034 32.8083 10.2832 32.7822L11.2109 32.7432V32.4404C11.2109 32.0205 11.1165 31.7243 10.9277 31.5518C10.7422 31.3792 10.4818 31.293 10.1465 31.293C9.86979 31.293 9.60449 31.3337 9.35059 31.415C9.09668 31.4932 8.85254 31.5876 8.61816 31.6982L8.30566 30.9854C8.55957 30.8551 8.84766 30.7461 9.16992 30.6582C9.49544 30.5703 9.83561 30.5264 10.1904 30.5264ZM11.2012 33.3877L10.4492 33.4219C9.82747 33.4447 9.38965 33.5488 9.13574 33.7344C8.88509 33.9167 8.75977 34.1722 8.75977 34.501C8.75977 34.7874 8.84603 34.9974 9.01855 35.1309C9.19108 35.2643 9.41895 35.3311 9.70215 35.3311C10.1383 35.3311 10.4964 35.209 10.7764 34.9648C11.0596 34.7174 11.2012 34.3529 11.2012 33.8711V33.3877ZM17.3633 34.4961C17.3633 34.8444 17.277 35.139 17.1045 35.3799C16.9352 35.6175 16.6878 35.7965 16.3623 35.917C16.0368 36.0374 15.6462 36.0977 15.1904 36.0977C14.8128 36.0977 14.4873 36.0684 14.2139 36.0098C13.9404 35.9544 13.693 35.873 13.4717 35.7656V34.8965C13.7093 35.0104 13.9844 35.1113 14.2969 35.1992C14.6094 35.2871 14.9154 35.3311 15.2148 35.3311C15.6348 35.3311 15.9375 35.2643 16.123 35.1309C16.3118 34.9974 16.4062 34.8167 16.4062 34.5889C16.4062 34.4554 16.3688 34.3382 16.2939 34.2373C16.2191 34.1331 16.0872 34.0306 15.8984 33.9297C15.7129 33.8255 15.446 33.7067 15.0977 33.5732C14.7559 33.4398 14.4629 33.3063 14.2188 33.1729C13.9779 33.0394 13.7939 32.8783 13.667 32.6895C13.54 32.5007 13.4766 32.2565 13.4766 31.957C13.4766 31.4915 13.6621 31.1367 14.0332 30.8926C14.4076 30.6452 14.9007 30.5215 15.5127 30.5215C15.8382 30.5215 16.1442 30.554 16.4307 30.6191C16.7204 30.6842 16.9971 30.7754 17.2607 30.8926L16.9434 31.6494C16.709 31.5485 16.4681 31.4655 16.2207 31.4004C15.9733 31.332 15.721 31.2979 15.4639 31.2979C15.1286 31.2979 14.8714 31.3516 14.6924 31.459C14.5166 31.5664 14.4287 31.7145 14.4287 31.9033C14.4287 32.0498 14.4694 32.1719 14.5508 32.2695C14.6354 32.3672 14.7754 32.4632 14.9707 32.5576C15.166 32.6488 15.4297 32.7578 15.7617 32.8848C16.0905 33.0085 16.3737 33.137 16.6113 33.2705C16.8522 33.404 17.0378 33.5667 17.168 33.7588C17.2982 33.9508 17.3633 34.1966 17.3633 34.4961ZM19.6191 28.4023V30.4922C19.6191 30.6582 19.6143 30.821 19.6045 30.9805C19.5947 31.14 19.5833 31.2734 19.5703 31.3809H19.6289C19.7428 31.1921 19.8828 31.0358 20.0488 30.9121C20.2181 30.7852 20.4085 30.6908 20.6201 30.6289C20.835 30.5638 21.0612 30.5312 21.2988 30.5312C21.7188 30.5312 22.0736 30.5996 22.3633 30.7363C22.653 30.873 22.8727 31.0863 23.0225 31.376C23.1722 31.6624 23.2471 32.0352 23.2471 32.4941V36H22.2754V32.626C22.2754 32.1963 22.181 31.874 21.9922 31.6592C21.8034 31.4411 21.5137 31.332 21.123 31.332C20.752 31.332 20.4557 31.4069 20.2344 31.5566C20.013 31.7031 19.8551 31.9196 19.7607 32.2061C19.6663 32.4925 19.6191 32.8441 19.6191 33.2607V36H18.6377V28.4023H19.6191ZM25.8691 28.4023V30.2676C25.8691 30.4824 25.8626 30.6924 25.8496 30.8975C25.8398 31.1025 25.8301 31.2604 25.8203 31.3711H25.8691C26.0156 31.1367 26.2223 30.9382 26.4893 30.7754C26.7594 30.6094 27.1061 30.5264 27.5293 30.5264C28.1836 30.5264 28.7077 30.7607 29.1016 31.2295C29.4954 31.695 29.6924 32.3867 29.6924 33.3047C29.6924 33.9102 29.6012 34.4212 29.4189 34.8379C29.2399 35.2546 28.986 35.5687 28.6572 35.7803C28.3317 35.9919 27.9476 36.0977 27.5049 36.0977C27.085 36.0977 26.7448 36.0212 26.4844 35.8682C26.224 35.7119 26.0205 35.5264 25.874 35.3115H25.8008L25.6152 36H24.8877V28.4023H25.8691ZM27.3096 31.332C26.9548 31.332 26.6715 31.402 26.46 31.542C26.2516 31.682 26.1019 31.8936 26.0107 32.1768C25.9196 32.46 25.8724 32.8164 25.8691 33.2461V33.3193C25.8691 33.9574 25.9733 34.4456 26.1816 34.7842C26.39 35.1227 26.7676 35.292 27.3145 35.292C27.7637 35.292 28.1038 35.1195 28.335 34.7744C28.5693 34.4294 28.6865 33.9362 28.6865 33.2949C28.6865 32.6439 28.571 32.154 28.3398 31.8252C28.1087 31.4964 27.7653 31.332 27.3096 31.332ZM35.7617 33.2998C35.7617 33.7425 35.7031 34.138 35.5859 34.4863C35.472 34.8314 35.3044 35.1243 35.083 35.3652C34.8649 35.6029 34.6012 35.7852 34.292 35.9121C33.9827 36.0358 33.6328 36.0977 33.2422 36.0977C32.8776 36.0977 32.5423 36.0358 32.2363 35.9121C31.9336 35.7852 31.6715 35.6029 31.4502 35.3652C31.2288 35.1243 31.0579 34.8314 30.9375 34.4863C30.8171 34.138 30.7568 33.7425 30.7568 33.2998C30.7568 32.7106 30.8577 32.2093 31.0596 31.7959C31.2614 31.3792 31.5495 31.0635 31.9238 30.8486C32.3014 30.6305 32.7507 30.5215 33.2715 30.5215C33.7663 30.5215 34.2008 30.6305 34.5752 30.8486C34.9495 31.0667 35.2409 31.3825 35.4492 31.7959C35.6576 32.2093 35.7617 32.7106 35.7617 33.2998ZM31.7627 33.2998C31.7627 33.7132 31.8148 34.0697 31.9189 34.3691C32.0264 34.6654 32.1891 34.8932 32.4072 35.0527C32.6286 35.2122 32.9134 35.292 33.2617 35.292C33.6035 35.292 33.8851 35.2122 34.1064 35.0527C34.3278 34.8932 34.4906 34.6654 34.5947 34.3691C34.6989 34.0697 34.751 33.7132 34.751 33.2998C34.751 32.8896 34.6989 32.5381 34.5947 32.2451C34.4906 31.9521 34.3278 31.7275 34.1064 31.5713C33.8883 31.415 33.6035 31.3369 33.252 31.3369C32.7376 31.3369 32.36 31.5094 32.1191 31.8545C31.8815 32.1963 31.7627 32.6781 31.7627 33.2998ZM39.1846 30.5264C39.8486 30.5264 40.3451 30.6745 40.6738 30.9707C41.0026 31.2637 41.167 31.7275 41.167 32.3623V36H40.4639L40.2734 35.2188H40.2344C40.0846 35.4141 39.9284 35.5768 39.7656 35.707C39.6029 35.8372 39.4141 35.9349 39.1992 36C38.9876 36.0651 38.7288 36.0977 38.4229 36.0977C38.0973 36.0977 37.8076 36.0391 37.5537 35.9219C37.2998 35.8047 37.0996 35.6289 36.9531 35.3945C36.8099 35.1569 36.7383 34.8558 36.7383 34.4912C36.7383 33.9443 36.9482 33.5293 37.3682 33.2461C37.7881 32.9629 38.4245 32.8083 39.2773 32.7822L40.2051 32.7432V32.4404C40.2051 32.0205 40.1107 31.7243 39.9219 31.5518C39.7363 31.3792 39.4759 31.293 39.1406 31.293C38.8639 31.293 38.5986 31.3337 38.3447 31.415C38.0908 31.4932 37.8467 31.5876 37.6123 31.6982L37.2998 30.9854C37.5537 30.8551 37.8418 30.7461 38.1641 30.6582C38.4896 30.5703 38.8298 30.5264 39.1846 30.5264ZM40.1953 33.3877L39.4434 33.4219C38.8216 33.4447 38.3838 33.5488 38.1299 33.7344C37.8792 33.9167 37.7539 34.1722 37.7539 34.501C37.7539 34.7874 37.8402 34.9974 38.0127 35.1309C38.1852 35.2643 38.4131 35.3311 38.6963 35.3311C39.1325 35.3311 39.4906 35.209 39.7705 34.9648C40.0537 34.7174 40.1953 34.3529 40.1953 33.8711V33.3877ZM45.3955 30.5215C45.4932 30.5215 45.599 30.528 45.7129 30.541C45.8268 30.5508 45.9245 30.5638 46.0059 30.5801L45.9033 31.4932C45.8252 31.4736 45.734 31.4574 45.6299 31.4443C45.529 31.4313 45.4346 31.4248 45.3467 31.4248C45.1383 31.4248 44.9398 31.4639 44.751 31.542C44.5622 31.6201 44.3962 31.734 44.2529 31.8838C44.1097 32.0303 43.9974 32.2109 43.916 32.4258C43.8346 32.6374 43.7939 32.8799 43.7939 33.1533V36H42.8076V30.6191H43.5986L43.7158 31.5908H43.7598C43.8704 31.3955 44.0039 31.2165 44.1602 31.0537C44.3197 30.891 44.502 30.7624 44.707 30.668C44.9154 30.5703 45.1449 30.5215 45.3955 30.5215ZM48.8672 36.0977C48.2096 36.0977 47.6839 35.8649 47.29 35.3994C46.8994 34.9339 46.7041 34.2438 46.7041 33.3291C46.7041 32.4046 46.9027 31.7064 47.2998 31.2344C47.7002 30.7591 48.2308 30.5215 48.8916 30.5215C49.1683 30.5215 49.4108 30.5589 49.6191 30.6338C49.8275 30.7087 50.0065 30.8079 50.1562 30.9316C50.3092 31.0553 50.4362 31.1953 50.5371 31.3516H50.5957C50.5794 31.2507 50.5632 31.109 50.5469 30.9268C50.5306 30.7445 50.5225 30.585 50.5225 30.4482V28.4023H51.5039V36H50.7275L50.5664 35.2529H50.5225C50.4248 35.4092 50.2995 35.5524 50.1465 35.6826C49.9967 35.8096 49.8161 35.9105 49.6045 35.9854C49.3962 36.0602 49.1504 36.0977 48.8672 36.0977ZM49.0967 35.2969C49.6273 35.2969 50.0016 35.1439 50.2197 34.8379C50.4411 34.5319 50.5534 34.0778 50.5566 33.4756V33.3242C50.5566 32.6829 50.4508 32.1914 50.2393 31.8496C50.0309 31.5046 49.6468 31.332 49.0869 31.332C48.6312 31.332 48.2878 31.5111 48.0566 31.8691C47.8255 32.224 47.71 32.7171 47.71 33.3486C47.71 33.9736 47.8255 34.4554 48.0566 34.7939C48.2878 35.1292 48.6344 35.2969 49.0967 35.2969Z" fill="white"/>
<rect x="33" y="7" width="4" height="13" rx="1" stroke="white" stroke-width="2" stroke-linejoin="round"/>
<rect x="25" y="13" width="4" height="7" rx="1" stroke="white" stroke-width="2" stroke-linejoin="round"/>
<rect x="17" y="9" width="4" height="11" rx="1" stroke="white" stroke-width="2" stroke-linejoin="round"/>
</svg>
