<svg width="29" height="38" viewBox="0 0 29 38" fill="none" xmlns="http://www.w3.org/2000/svg">
<path d="M7.5 12.7597C7.5 11.4019 7.5 10.723 7.77446 10.1263C8.04892 9.52956 8.56437 9.08775 9.59525 8.20413L10.5953 7.34699C12.4586 5.74986 13.3902 4.95129 14.5 4.95129C15.6098 4.95129 16.5414 5.74986 18.4047 7.34699L19.4047 8.20413C20.4356 9.08775 20.9511 9.52956 21.2255 10.1263C21.5 10.723 21.5 11.4019 21.5 12.7597V17.0001C21.5 18.8857 21.5 19.8285 20.9142 20.4143C20.3284 21.0001 19.3856 21.0001 17.5 21.0001H11.5C9.61438 21.0001 8.67157 21.0001 8.08579 20.4143C7.5 19.8285 7.5 18.8857 7.5 17.0001V12.7597Z" stroke="white" stroke-width="2"/>
<path d="M11.5 16.5H18" stroke="white" stroke-width="2" stroke-linecap="round"/>
<path d="M6.47949 36H5.47852V32.7041H1.95801V36H0.957031V28.8613H1.95801V31.8398H5.47852V28.8613H6.47949V36ZM12.9785 33.2998C12.9785 33.7425 12.9199 34.138 12.8027 34.4863C12.6888 34.8314 12.5212 35.1243 12.2998 35.3652C12.0817 35.6029 11.818 35.7852 11.5088 35.9121C11.1995 36.0358 10.8496 36.0977 10.459 36.0977C10.0944 36.0977 9.75911 36.0358 9.45312 35.9121C9.15039 35.7852 8.88835 35.6029 8.66699 35.3652C8.44564 35.1243 8.27474 34.8314 8.1543 34.4863C8.03385 34.138 7.97363 33.7425 7.97363 33.2998C7.97363 32.7106 8.07454 32.2093 8.27637 31.7959C8.47819 31.3792 8.76628 31.0635 9.14062 30.8486C9.51823 30.6305 9.96745 30.5215 10.4883 30.5215C10.9831 30.5215 11.4176 30.6305 11.792 30.8486C12.1663 31.0667 12.4577 31.3825 12.666 31.7959C12.8743 32.2093 12.9785 32.7106 12.9785 33.2998ZM8.97949 33.2998C8.97949 33.7132 9.03158 34.0697 9.13574 34.3691C9.24316 34.6654 9.40592 34.8932 9.62402 35.0527C9.84538 35.2122 10.1302 35.292 10.4785 35.292C10.8203 35.292 11.1019 35.2122 11.3232 35.0527C11.5446 34.8932 11.7074 34.6654 11.8115 34.3691C11.9157 34.0697 11.9678 33.7132 11.9678 33.2998C11.9678 32.8896 11.9157 32.5381 11.8115 32.2451C11.7074 31.9521 11.5446 31.7275 11.3232 31.5713C11.1051 31.415 10.8203 31.3369 10.4688 31.3369C9.95443 31.3369 9.57682 31.5094 9.33594 31.8545C9.09831 32.1963 8.97949 32.6781 8.97949 33.2998ZM20.3027 30.5215C20.8984 30.5215 21.3477 30.6777 21.6504 30.9902C21.9564 31.2995 22.1094 31.7959 22.1094 32.4795V36H21.1377V32.6016C21.1377 32.1784 21.0498 31.861 20.874 31.6494C20.7015 31.4378 20.4427 31.332 20.0977 31.332C19.6094 31.332 19.2562 31.4801 19.0381 31.7764C18.8232 32.0693 18.7158 32.5007 18.7158 33.0703V36H17.7393V32.6016C17.7393 32.3184 17.7002 32.084 17.6221 31.8984C17.5439 31.7096 17.4284 31.568 17.2754 31.4736C17.1224 31.3792 16.9287 31.332 16.6943 31.332C16.359 31.332 16.0905 31.4053 15.8887 31.5518C15.6901 31.695 15.5452 31.9082 15.4541 32.1914C15.3662 32.4746 15.3223 32.8213 15.3223 33.2314V36H14.3408V30.6191H15.1172L15.2588 31.3613H15.3125C15.4199 31.1758 15.555 31.0212 15.7178 30.8975C15.8838 30.7738 16.0677 30.681 16.2695 30.6191C16.4714 30.554 16.6846 30.5215 16.9092 30.5215C17.3128 30.5215 17.653 30.5947 17.9297 30.7412C18.2064 30.8877 18.4098 31.1107 18.54 31.4102H18.6035C18.776 31.1074 19.0137 30.8844 19.3164 30.7412C19.6224 30.5947 19.9512 30.5215 20.3027 30.5215ZM25.8545 30.5215C26.3232 30.5215 26.7253 30.6224 27.0605 30.8242C27.3958 31.0228 27.653 31.3044 27.832 31.6689C28.0111 32.0335 28.1006 32.4632 28.1006 32.958V33.5146H24.4482C24.458 34.0908 24.6061 34.5335 24.8926 34.8428C25.179 35.1488 25.5811 35.3018 26.0986 35.3018C26.4404 35.3018 26.7448 35.2692 27.0117 35.2041C27.2786 35.139 27.5553 35.043 27.8418 34.916V35.7412C27.5716 35.8649 27.2998 35.9544 27.0264 36.0098C26.7562 36.0684 26.4323 36.0977 26.0547 36.0977C25.5339 36.0977 25.0765 35.9935 24.6826 35.7852C24.292 35.5768 23.9876 35.2692 23.7695 34.8623C23.5514 34.4521 23.4424 33.9476 23.4424 33.3486C23.4424 32.7562 23.5417 32.25 23.7402 31.8301C23.9388 31.4069 24.2188 31.083 24.5801 30.8584C24.9414 30.6338 25.3662 30.5215 25.8545 30.5215ZM25.8496 31.2832C25.4525 31.2832 25.1335 31.4134 24.8926 31.6738C24.6517 31.931 24.5101 32.3005 24.4678 32.7822H27.1143C27.111 32.486 27.0638 32.2256 26.9727 32.001C26.8815 31.7764 26.7432 31.6006 26.5576 31.4736C26.3753 31.3467 26.1393 31.2832 25.8496 31.2832Z" fill="white"/>
</svg>
