<svg width="39" height="38" viewBox="0 0 39 38" fill="none" xmlns="http://www.w3.org/2000/svg">
<path d="M5.53418 34.0811C5.53418 34.5042 5.42839 34.8672 5.2168 35.1699C5.00846 35.4694 4.71387 35.6989 4.33301 35.8584C3.95215 36.0179 3.49967 36.0977 2.97559 36.0977C2.71191 36.0977 2.45964 36.083 2.21875 36.0537C1.98112 36.0277 1.75977 35.9886 1.55469 35.9365C1.34961 35.8844 1.16406 35.8193 0.998047 35.7412V34.7939C1.26823 34.9046 1.58073 35.0088 1.93555 35.1064C2.29036 35.2008 2.65658 35.248 3.03418 35.248C3.36296 35.248 3.63802 35.2041 3.85938 35.1162C4.08398 35.0251 4.25326 34.8981 4.36719 34.7354C4.48112 34.5726 4.53809 34.3773 4.53809 34.1494C4.53809 33.9215 4.48275 33.7311 4.37207 33.5781C4.26139 33.4219 4.08561 33.2786 3.84473 33.1484C3.6071 33.0182 3.2946 32.8799 2.90723 32.7334C2.63704 32.6357 2.39128 32.5251 2.16992 32.4014C1.94857 32.2744 1.75651 32.1296 1.59375 31.9668C1.43424 31.804 1.31055 31.6136 1.22266 31.3955C1.13477 31.1742 1.09082 30.9202 1.09082 30.6338C1.09082 30.2399 1.18685 29.903 1.37891 29.623C1.57422 29.3431 1.84603 29.1299 2.19434 28.9834C2.54264 28.8337 2.94629 28.7588 3.40527 28.7588C3.78288 28.7588 4.13444 28.7962 4.45996 28.8711C4.78874 28.946 5.10124 29.0485 5.39746 29.1787L5.08008 30.0088C4.80339 29.8949 4.52507 29.8021 4.24512 29.7305C3.96517 29.6589 3.67546 29.623 3.37598 29.623C3.09928 29.623 2.86491 29.6637 2.67285 29.7451C2.48405 29.8265 2.33919 29.9421 2.23828 30.0918C2.14062 30.2415 2.0918 30.4189 2.0918 30.624C2.0918 30.8551 2.14388 31.0472 2.24805 31.2002C2.35221 31.3532 2.5166 31.4915 2.74121 31.6152C2.96582 31.7389 3.25879 31.8708 3.62012 32.0107C4.02702 32.167 4.37207 32.333 4.65527 32.5088C4.94173 32.6846 5.15983 32.8962 5.30957 33.1436C5.45931 33.391 5.53418 33.7035 5.53418 34.0811ZM8.93262 30.5215C9.40137 30.5215 9.80339 30.6224 10.1387 30.8242C10.474 31.0228 10.7311 31.3044 10.9102 31.6689C11.0892 32.0335 11.1787 32.4632 11.1787 32.958V33.5146H7.52637C7.53613 34.0908 7.68424 34.5335 7.9707 34.8428C8.25716 35.1488 8.65918 35.3018 9.17676 35.3018C9.51855 35.3018 9.82292 35.2692 10.0898 35.2041C10.3568 35.139 10.6335 35.043 10.9199 34.916V35.7412C10.6497 35.8649 10.3779 35.9544 10.1045 36.0098C9.83431 36.0684 9.51042 36.0977 9.13281 36.0977C8.61198 36.0977 8.15462 35.9935 7.76074 35.7852C7.37012 35.5768 7.06576 35.2692 6.84766 34.8623C6.62956 34.4521 6.52051 33.9476 6.52051 33.3486C6.52051 32.7562 6.61979 32.25 6.81836 31.8301C7.01693 31.4069 7.29688 31.083 7.6582 30.8584C8.01953 30.6338 8.44434 30.5215 8.93262 30.5215ZM8.92773 31.2832C8.5306 31.2832 8.21159 31.4134 7.9707 31.6738C7.72982 31.931 7.58822 32.3005 7.5459 32.7822H10.1924C10.1891 32.486 10.1419 32.2256 10.0508 32.001C9.95964 31.7764 9.82129 31.6006 9.63574 31.4736C9.45345 31.3467 9.21745 31.2832 8.92773 31.2832ZM15.1924 30.5215C15.8141 30.5215 16.291 30.6777 16.623 30.9902C16.9583 31.3027 17.126 31.804 17.126 32.4941V36H16.1543V32.626C16.1543 32.1963 16.0599 31.874 15.8711 31.6592C15.6823 31.4411 15.3926 31.332 15.002 31.332C14.4453 31.332 14.0547 31.4964 13.8301 31.8252C13.6087 32.154 13.498 32.6309 13.498 33.2559V36H12.5166V30.6191H13.293L13.4346 31.376H13.4883C13.6022 31.1872 13.7471 31.0293 13.9229 30.9023C14.0986 30.7754 14.2939 30.681 14.5088 30.6191C14.7269 30.554 14.9548 30.5215 15.1924 30.5215ZM22.3164 34.4961C22.3164 34.8444 22.2301 35.139 22.0576 35.3799C21.8883 35.6175 21.641 35.7965 21.3154 35.917C20.9899 36.0374 20.5993 36.0977 20.1436 36.0977C19.766 36.0977 19.4404 36.0684 19.167 36.0098C18.8936 35.9544 18.6462 35.873 18.4248 35.7656V34.8965C18.6624 35.0104 18.9375 35.1113 19.25 35.1992C19.5625 35.2871 19.8685 35.3311 20.168 35.3311C20.5879 35.3311 20.8906 35.2643 21.0762 35.1309C21.265 34.9974 21.3594 34.8167 21.3594 34.5889C21.3594 34.4554 21.3219 34.3382 21.2471 34.2373C21.1722 34.1331 21.0404 34.0306 20.8516 33.9297C20.666 33.8255 20.3991 33.7067 20.0508 33.5732C19.709 33.4398 19.416 33.3063 19.1719 33.1729C18.931 33.0394 18.7471 32.8783 18.6201 32.6895C18.4932 32.5007 18.4297 32.2565 18.4297 31.957C18.4297 31.4915 18.6152 31.1367 18.9863 30.8926C19.3607 30.6452 19.8538 30.5215 20.4658 30.5215C20.7913 30.5215 21.0973 30.554 21.3838 30.6191C21.6735 30.6842 21.9502 30.7754 22.2139 30.8926L21.8965 31.6494C21.6621 31.5485 21.4212 31.4655 21.1738 31.4004C20.9264 31.332 20.6742 31.2979 20.417 31.2979C20.0817 31.2979 19.8245 31.3516 19.6455 31.459C19.4697 31.5664 19.3818 31.7145 19.3818 31.9033C19.3818 32.0498 19.4225 32.1719 19.5039 32.2695C19.5885 32.3672 19.7285 32.4632 19.9238 32.5576C20.1191 32.6488 20.3828 32.7578 20.7148 32.8848C21.0436 33.0085 21.3268 33.137 21.5645 33.2705C21.8053 33.404 21.9909 33.5667 22.1211 33.7588C22.2513 33.9508 22.3164 34.1966 22.3164 34.4961ZM28.293 33.2998C28.293 33.7425 28.2344 34.138 28.1172 34.4863C28.0033 34.8314 27.8356 35.1243 27.6143 35.3652C27.3962 35.6029 27.1325 35.7852 26.8232 35.9121C26.514 36.0358 26.1641 36.0977 25.7734 36.0977C25.4089 36.0977 25.0736 36.0358 24.7676 35.9121C24.4648 35.7852 24.2028 35.6029 23.9814 35.3652C23.7601 35.1243 23.5892 34.8314 23.4688 34.4863C23.3483 34.138 23.2881 33.7425 23.2881 33.2998C23.2881 32.7106 23.389 32.2093 23.5908 31.7959C23.7926 31.3792 24.0807 31.0635 24.4551 30.8486C24.8327 30.6305 25.2819 30.5215 25.8027 30.5215C26.2975 30.5215 26.7321 30.6305 27.1064 30.8486C27.4808 31.0667 27.7721 31.3825 27.9805 31.7959C28.1888 32.2093 28.293 32.7106 28.293 33.2998ZM24.2939 33.2998C24.2939 33.7132 24.346 34.0697 24.4502 34.3691C24.5576 34.6654 24.7204 34.8932 24.9385 35.0527C25.1598 35.2122 25.4447 35.292 25.793 35.292C26.1348 35.292 26.4163 35.2122 26.6377 35.0527C26.859 34.8932 27.0218 34.6654 27.126 34.3691C27.2301 34.0697 27.2822 33.7132 27.2822 33.2998C27.2822 32.8896 27.2301 32.5381 27.126 32.2451C27.0218 31.9521 26.859 31.7275 26.6377 31.5713C26.4196 31.415 26.1348 31.3369 25.7832 31.3369C25.2689 31.3369 24.8913 31.5094 24.6504 31.8545C24.4128 32.1963 24.2939 32.6781 24.2939 33.2998ZM32.2432 30.5215C32.3408 30.5215 32.4466 30.528 32.5605 30.541C32.6745 30.5508 32.7721 30.5638 32.8535 30.5801L32.751 31.4932C32.6729 31.4736 32.5817 31.4574 32.4775 31.4443C32.3766 31.4313 32.2822 31.4248 32.1943 31.4248C31.986 31.4248 31.7874 31.4639 31.5986 31.542C31.4098 31.6201 31.2438 31.734 31.1006 31.8838C30.9574 32.0303 30.8451 32.2109 30.7637 32.4258C30.6823 32.6374 30.6416 32.8799 30.6416 33.1533V36H29.6553V30.6191H30.4463L30.5635 31.5908H30.6074C30.7181 31.3955 30.8516 31.2165 31.0078 31.0537C31.1673 30.891 31.3496 30.7624 31.5547 30.668C31.763 30.5703 31.9925 30.5215 32.2432 30.5215ZM37.4043 34.4961C37.4043 34.8444 37.318 35.139 37.1455 35.3799C36.9762 35.6175 36.7288 35.7965 36.4033 35.917C36.0778 36.0374 35.6872 36.0977 35.2314 36.0977C34.8538 36.0977 34.5283 36.0684 34.2549 36.0098C33.9814 35.9544 33.734 35.873 33.5127 35.7656V34.8965C33.7503 35.0104 34.0254 35.1113 34.3379 35.1992C34.6504 35.2871 34.9564 35.3311 35.2559 35.3311C35.6758 35.3311 35.9785 35.2643 36.1641 35.1309C36.3529 34.9974 36.4473 34.8167 36.4473 34.5889C36.4473 34.4554 36.4098 34.3382 36.335 34.2373C36.2601 34.1331 36.1283 34.0306 35.9395 33.9297C35.7539 33.8255 35.487 33.7067 35.1387 33.5732C34.7969 33.4398 34.5039 33.3063 34.2598 33.1729C34.0189 33.0394 33.835 32.8783 33.708 32.6895C33.5811 32.5007 33.5176 32.2565 33.5176 31.957C33.5176 31.4915 33.7031 31.1367 34.0742 30.8926C34.4486 30.6452 34.9417 30.5215 35.5537 30.5215C35.8792 30.5215 36.1852 30.554 36.4717 30.6191C36.7614 30.6842 37.0381 30.7754 37.3018 30.8926L36.9844 31.6494C36.75 31.5485 36.5091 31.4655 36.2617 31.4004C36.0143 31.332 35.762 31.2979 35.5049 31.2979C35.1696 31.2979 34.9124 31.3516 34.7334 31.459C34.5576 31.5664 34.4697 31.7145 34.4697 31.9033C34.4697 32.0498 34.5104 32.1719 34.5918 32.2695C34.6764 32.3672 34.8164 32.4632 35.0117 32.5576C35.207 32.6488 35.4707 32.7578 35.8027 32.8848C36.1315 33.0085 36.4147 33.137 36.6523 33.2705C36.8932 33.404 37.0788 33.5667 37.209 33.7588C37.3392 33.9508 37.4043 34.1966 37.4043 34.4961Z" fill="white"/>
<rect x="13.5" y="13" width="4" height="4" rx="2" transform="rotate(90 13.5 13)" fill="white" stroke="white" stroke-width="2"/>
<rect x="24.5" y="12" width="4" height="4" rx="2" transform="rotate(-90 24.5 12)" fill="white" stroke="white" stroke-width="2"/>
<path d="M25.5 11L24 12.5C22.9829 13.5171 22.4744 14.0256 21.8628 14.1384C21.6229 14.1826 21.3771 14.1826 21.1372 14.1384C20.5256 14.0256 20.0171 13.5171 19 12.5V12.5C17.9829 11.4829 17.4744 10.9744 16.8628 10.8616C16.6229 10.8174 16.3771 10.8174 16.1372 10.8616C15.5256 10.9744 15.0171 11.4829 14 12.5L12.5 14" stroke="white" stroke-width="2"/>
</svg>
