<svg width="24" height="24" viewBox="0 0 24 24" fill="none" xmlns="http://www.w3.org/2000/svg">
<path d="M4.79107 13.9791L4.69156 14.9741L4.69157 14.9741L4.79107 13.9791ZM4.95384 13.9972L5.11286 13.0099L5.11285 13.0099L4.95384 13.9972ZM3.26401 13.572L2.52253 14.243L2.52802 14.249L3.26401 13.572ZM3.25313 13.56L2.50624 14.225L2.51168 14.231L3.25313 13.56ZM3.25313 10.44L2.51167 9.76898L2.50626 9.77504L3.25313 10.44ZM3.26401 10.428L2.528 9.75098L2.52257 9.75697L3.26401 10.428ZM4.79107 10.0209L4.69156 9.02586L4.69156 9.02586L4.79107 10.0209ZM4.95437 10.0027L4.79516 9.0155L4.79515 9.0155L4.95437 10.0027ZM5.60583 8.42999L4.79515 9.01549L4.79516 9.0155L5.60583 8.42999ZM5.50311 8.30159L4.72787 8.93326L4.72915 8.93483L5.50311 8.30159ZM5.50308 8.30155L6.27832 7.66988L6.27704 7.66831L5.50308 8.30155ZM4.71115 6.9339L3.71236 6.88408L3.71202 6.89218L4.71115 6.9339ZM4.71196 6.9177L3.7136 6.85979L3.7132 6.86789L4.71196 6.9177ZM5.63604 5.63564L6.34315 6.34274H6.34315L5.63604 5.63564ZM6.91811 4.71155L6.8683 3.71276L6.8602 3.71323L6.91811 4.71155ZM6.93431 4.71074L6.89259 3.71158L6.88449 3.71199L6.93431 4.71074ZM8.30196 5.50267L8.9352 4.72871L8.9352 4.72871L8.30196 5.50267ZM8.42974 5.60491L9.01557 4.79447L9.01556 4.79447L8.42974 5.60491ZM10.0029 4.95329L9.01557 4.79446L9.01557 4.79447L10.0029 4.95329ZM10.0209 4.7911L9.02761 4.67538L9.02666 4.68349L9.02585 4.69161L10.0209 4.7911ZM10.0209 4.79107L11.0142 4.90679L11.0151 4.89869L11.0159 4.89057L10.0209 4.79107ZM10.428 3.26401L9.75696 2.52254L9.751 2.52802L10.428 3.26401ZM10.44 3.25313L9.77502 2.50624L9.76901 2.51168L10.44 3.25313ZM13.56 3.25313L14.231 2.51164L14.225 2.50626L13.56 3.25313ZM13.572 3.26401L14.249 2.528L14.243 2.52255L13.572 3.26401ZM13.9791 4.79106H14.9791V4.74118L14.9741 4.69155L13.9791 4.79106ZM13.9791 4.79107H12.9791V4.83182L12.9824 4.87243L13.9791 4.79107ZM13.9791 4.79114L12.9824 4.8725L12.9832 4.88158L12.9841 4.89065L13.9791 4.79114ZM13.9972 4.95384L14.9845 4.79482L14.9845 4.7948L13.9972 4.95384ZM15.5701 5.60537L14.9845 4.79482L14.9845 4.79482L15.5701 5.60537ZM15.698 5.50308L15.0648 4.72912L15.0648 4.72912L15.698 5.50308ZM17.0657 4.71115L17.1155 3.71236L17.1074 3.71202L17.0657 4.71115ZM17.0819 4.71196L17.1398 3.7136L17.1317 3.7132L17.0819 4.71196ZM19.288 6.91811L20.2868 6.86835L20.2863 6.8602L19.288 6.91811ZM19.2888 6.93431L20.288 6.89259L20.2876 6.88455L19.2888 6.93431ZM18.4969 8.30193L17.723 7.6687L17.7134 7.68032L17.7043 7.69222L18.4969 8.30193ZM18.4969 8.30195L19.204 9.00906L19.2499 8.96314L19.2895 8.91166L18.4969 8.30195ZM18.4969 8.30196L17.7898 7.59485L17.7506 7.63402L17.716 7.67726L18.4969 8.30196ZM18.4969 8.30197L19.2709 8.93524L19.2778 8.92666L18.4969 8.30197ZM18.3946 8.42987L17.584 7.84421L17.584 7.84422L18.3946 8.42987ZM19.0461 10.0028L18.8871 10.9901L18.8871 10.9901L19.0461 10.0028ZM19.2089 10.0209L19.3084 9.02586L19.3084 9.02586L19.2089 10.0209ZM20.736 10.428L21.4775 9.75695L21.472 9.751L20.736 10.428ZM20.7469 10.44L21.4938 9.77502L21.4883 9.769L20.7469 10.44ZM20.7469 13.56L21.4883 14.231L21.4937 14.225L20.7469 13.56ZM20.736 13.572L21.472 14.249L21.4774 14.243L20.736 13.572ZM19.2089 13.9791L19.1094 12.9841H19.1094L19.2089 13.9791ZM19.0467 13.9971L18.888 13.0098L18.8879 13.0098L19.0467 13.9971ZM18.3951 15.5703L17.5847 16.1562L17.5847 16.1562L18.3951 15.5703ZM18.4969 15.6976L17.723 16.3309L17.723 16.3309L18.4969 15.6976ZM19.2889 17.0653L20.2877 17.115L20.288 17.107L19.2889 17.0653ZM19.288 17.0815L20.2864 17.1394L20.2868 17.1312L19.288 17.0815ZM18.364 18.3636L19.0711 19.0707V19.0707L18.364 18.3636ZM18.364 18.3636L19.0711 19.0707L18.364 18.3636ZM17.0819 19.2876L17.1317 20.2864L17.1398 20.286L17.0819 19.2876ZM17.0657 19.2884L17.1074 20.2876L17.1155 20.2872L17.0657 19.2884ZM15.6981 18.4965L16.3313 17.7226L16.3297 17.7213L15.6981 18.4965ZM15.698 18.4965L15.0647 19.2704L15.0663 19.2717L15.698 18.4965ZM15.5702 18.3942L14.9845 19.2048L14.9845 19.2048L15.5702 18.3942ZM13.9972 19.0458L13.01 18.8867L13.01 18.8868L13.9972 19.0458ZM13.9791 19.2089L12.9841 19.1094V19.1094L13.9791 19.2089ZM13.9791 19.2089L14.9741 19.3084L13.9791 19.2089ZM13.572 20.736L14.243 21.4775L14.249 21.472L13.572 20.736ZM13.56 20.7469L14.225 21.4938L14.231 21.4883L13.56 20.7469ZM10.44 20.7469L9.76898 21.4883L9.77504 21.4937L10.44 20.7469ZM10.428 20.736L9.75098 21.472L9.75698 21.4774L10.428 20.736ZM10.0209 19.2089L9.02284 19.2713L9.024 19.2899L9.02586 19.3084L10.0209 19.2089ZM10.0209 19.2089L11.0189 19.1465L11.0178 19.1279L11.0159 19.1094L10.0209 19.2089ZM10.0028 19.0461L10.9901 18.887L10.9901 18.887L10.0028 19.0461ZM8.42989 18.3946L9.01551 19.2051L9.01552 19.2051L8.42989 18.3946ZM8.30196 18.4969L8.92669 19.2778L8.9352 19.2708L8.30196 18.4969ZM8.30192 18.4969L7.67719 17.716L7.66868 17.723L8.30192 18.4969ZM6.93427 19.2889L6.88451 20.2877L6.89255 20.288L6.93427 19.2889ZM6.91807 19.288L6.86016 20.2864L6.86832 20.2868L6.91807 19.288ZM5.63602 18.364L4.92891 19.0711L4.92891 19.0711L5.63602 18.364ZM5.63601 18.364L4.89886 19.0397L4.91354 19.0557L4.9289 19.0711L5.63601 18.364ZM5.636 18.364L6.37316 17.6882L6.35847 17.6722L6.34311 17.6569L5.636 18.364ZM4.71192 17.0819L3.71313 17.1317L3.7136 17.1398L4.71192 17.0819ZM4.71111 17.0657L3.71195 17.1074L3.71235 17.1155L4.71111 17.0657ZM5.50304 15.6981L6.27706 16.3313L6.28481 16.3216L5.50304 15.6981ZM5.50309 15.698L4.72908 15.0647L4.72131 15.0744L5.50309 15.698ZM5.60537 15.5701L4.79482 14.9845L4.79481 14.9845L5.60537 15.5701ZM4.69157 14.9741C4.73774 14.9788 4.76594 14.9816 4.78652 14.9838C4.80845 14.9862 4.80622 14.9863 4.79483 14.9845L5.11285 13.0099C5.04533 12.999 4.9608 12.9911 4.89057 12.9841L4.69157 14.9741ZM2.52802 14.249C2.84618 14.5949 3.23475 14.7433 3.58228 14.8233C3.90258 14.8972 4.29473 14.9345 4.69156 14.9741L4.89057 12.9841C4.44117 12.9391 4.19865 12.913 4.0314 12.8744C3.89139 12.8422 3.93955 12.8293 4 12.895L2.52802 14.249ZM2.51168 14.231L2.52256 14.243L4.00547 12.901L3.99459 12.889L2.51168 14.231ZM2 12C2 12.3988 1.9981 12.7927 2.03967 13.1188C2.08478 13.4726 2.19375 13.874 2.50626 14.225L4 12.895C4.05938 12.9617 4.04178 13.0083 4.02361 12.8658C4.0019 12.6956 4 12.4516 4 12H2ZM2.50626 9.77504C2.19376 10.126 2.08478 10.5274 2.03967 10.8812C1.9981 11.2073 2 11.6012 2 12H4C4 11.5484 4.0019 11.3044 4.02361 11.1342C4.04178 10.9917 4.05938 11.0383 4 11.105L2.50626 9.77504ZM2.52257 9.75697L2.51169 9.769L3.99457 11.111L4.00546 11.099L2.52257 9.75697ZM4.69156 9.02586C4.29473 9.06554 3.90257 9.10284 3.58228 9.17665C3.23475 9.25674 2.84618 9.40511 2.52803 9.751L4 11.105C3.93955 11.1707 3.89139 11.1578 4.0314 11.1256C4.19865 11.087 4.44117 11.0609 4.89057 11.0159L4.69156 9.02586ZM4.79515 9.0155C4.80659 9.01365 4.80884 9.01374 4.78683 9.01614C4.76619 9.01838 4.73789 9.02122 4.69156 9.02586L4.89057 11.0159C4.961 11.0089 5.04585 11.0009 5.1136 10.99L4.79515 9.0155ZM4.79516 9.0155L4.79516 9.0155L5.11359 10.99C6.58308 10.753 7.288 9.05115 6.4165 7.84449L4.79516 9.0155ZM4.72915 8.93483C4.75866 8.97089 4.77668 8.99293 4.78971 9.00914C4.80361 9.02643 4.80195 9.0249 4.79515 9.01549L6.4165 7.8445C6.37632 7.78887 6.32193 7.72318 6.27707 7.66835L4.72915 8.93483ZM4.72784 8.93322L4.72788 8.93326L6.27835 7.66992L6.27831 7.66988L4.72784 8.93322ZM3.71202 6.89218C3.69242 7.36173 3.86226 7.74141 4.05137 8.04378C4.22566 8.32245 4.47658 8.62613 4.72912 8.93479L6.27704 7.66831C5.99104 7.31876 5.83805 7.12878 5.74705 6.98326C5.67086 6.86144 5.71401 6.8864 5.71028 6.97561L3.71202 6.89218ZM3.7132 6.86789L3.71239 6.88408L5.70991 6.98371L5.71072 6.96751L3.7132 6.86789ZM4.92894 4.92853C4.64694 5.21053 4.36705 5.48773 4.16589 5.74768C3.94763 6.02973 3.74085 6.39062 3.71364 6.85979L5.71028 6.97561C5.70511 7.06475 5.65969 7.08529 5.74762 6.97166C5.85266 6.83592 6.02379 6.6621 6.34315 6.34274L4.92894 4.92853ZM6.8602 3.71323C6.39103 3.74044 6.03014 3.94723 5.74809 4.16548C5.48814 4.36664 5.21094 4.64653 4.92894 4.92853L6.34315 6.34274C6.66251 6.02338 6.83633 5.85225 6.97207 5.74722C7.0857 5.65928 7.06516 5.7047 6.97602 5.70987L6.8602 3.71323ZM6.88449 3.71199L6.8683 3.71279L6.96792 5.71031L6.98412 5.7095L6.88449 3.71199ZM8.9352 4.72871C8.62654 4.47617 8.32286 4.22525 8.04419 4.05096C7.74182 3.86185 7.36214 3.69201 6.89259 3.71161L6.97602 5.70987C6.88681 5.7136 6.86185 5.67045 6.98367 5.74664C7.12919 5.83765 7.31917 5.99063 7.66872 6.27663L8.9352 4.72871ZM9.01556 4.79447C9.02493 4.80124 9.02644 4.80288 9.0092 4.78902C8.99306 4.77605 8.9711 4.75809 8.9352 4.72871L7.66872 6.27663C7.72332 6.3213 7.78866 6.3754 7.84391 6.41534L9.01556 4.79447ZM9.01557 4.79447V4.79447L7.84391 6.41534C9.05079 7.28774 10.7537 6.58239 10.9902 5.11212L9.01557 4.79447ZM9.02585 4.69161C9.02125 4.73762 9.01843 4.76571 9.0162 4.78621C9.01383 4.80807 9.01374 4.80583 9.01557 4.79446L10.9902 5.11212C11.001 5.04482 11.0089 4.96056 11.0159 4.8906L9.02585 4.69161ZM9.02761 4.67534L9.02761 4.67538L11.0142 4.90682L11.0142 4.90679L9.02761 4.67534ZM9.751 2.52802C9.40512 2.84618 9.25674 3.23475 9.17666 3.58228C9.10284 3.90257 9.06554 4.29473 9.02586 4.69156L11.0159 4.89057C11.0609 4.44117 11.087 4.19865 11.1256 4.0314C11.1578 3.89139 11.1707 3.93955 11.105 4L9.751 2.52802ZM9.76901 2.51168L9.75699 2.52256L11.099 4.00546L11.111 3.99458L9.76901 2.51168ZM12 2C11.6012 2 11.2073 1.9981 10.8812 2.03967C10.5274 2.08478 10.126 2.19375 9.77504 2.50626L11.105 4C11.0383 4.05938 10.9917 4.04178 11.1342 4.02361C11.3044 4.0019 11.5484 4 12 4V2ZM14.225 2.50626C13.874 2.19375 13.4726 2.08478 13.1188 2.03967C12.7927 1.9981 12.3988 2 12 2V4C12.4516 4 12.6956 4.0019 12.8658 4.02361C13.0083 4.04178 12.9617 4.05938 12.895 4L14.225 2.50626ZM14.243 2.52255L14.231 2.51167L12.889 3.9946L12.901 4.00548L14.243 2.52255ZM14.9741 4.69155C14.9345 4.29473 14.8972 3.90257 14.8233 3.58228C14.7433 3.23475 14.5949 2.84618 14.249 2.52802L12.895 4C12.8293 3.93955 12.8422 3.89139 12.8744 4.0314C12.913 4.19865 12.9391 4.44116 12.9841 4.89056L14.9741 4.69155ZM14.9791 4.79107V4.79106H12.9791V4.79107H14.9791ZM14.9758 4.70977L14.9758 4.7097L12.9824 4.87243L12.9824 4.8725L14.9758 4.70977ZM14.9845 4.7948C14.9863 4.80621 14.9862 4.80846 14.9838 4.78653C14.9816 4.76596 14.9788 4.73778 14.9741 4.69162L12.9841 4.89065C12.9911 4.96081 12.999 5.04536 13.0099 5.11287L14.9845 4.7948ZM14.9845 4.79482V4.79482L13.0099 5.11285C13.2467 6.58274 14.949 7.28789 16.1558 6.41592L14.9845 4.79482ZM15.0648 4.72912C15.0289 4.75851 15.0069 4.77644 14.9908 4.78941C14.9736 4.80323 14.9751 4.80159 14.9845 4.79482L16.1558 6.41592C16.2112 6.37587 16.2766 6.32171 16.3313 6.27703L15.0648 4.72912ZM17.1074 3.71202C16.6378 3.69242 16.2582 3.86226 15.9558 4.05137C15.6771 4.22566 15.3734 4.47658 15.0648 4.72912L16.3312 6.27704C16.6808 5.99104 16.8708 5.83805 17.0163 5.74705C17.1381 5.67086 17.1132 5.71401 17.0239 5.71028L17.1074 3.71202ZM17.1317 3.7132L17.1155 3.71239L17.0158 5.70991L17.032 5.71072L17.1317 3.7132ZM19.071 4.92894C18.789 4.64694 18.5118 4.36705 18.2519 4.16589C17.9698 3.94763 17.6089 3.74085 17.1398 3.71364L17.0239 5.71028C16.9348 5.70511 16.9143 5.65969 17.0279 5.74762C17.1636 5.85266 17.3375 6.02379 17.6568 6.34315L19.071 4.92894ZM20.2863 6.8602C20.2591 6.39103 20.0523 6.03014 19.8341 5.74809C19.6329 5.48814 19.353 5.21094 19.071 4.92894L17.6568 6.34315C17.9762 6.66251 18.1473 6.83633 18.2523 6.97207C18.3403 7.0857 18.2949 7.06516 18.2897 6.97602L20.2863 6.8602ZM20.2876 6.88455L20.2868 6.86836L18.2892 6.96786L18.2901 6.98406L20.2876 6.88455ZM19.2709 8.93517C19.5234 8.62652 19.7743 8.32285 19.9486 8.04418C20.1377 7.74181 20.3076 7.36213 20.2879 6.89259L18.2897 6.97602C18.286 6.88681 18.3291 6.86185 18.2529 6.98366C18.1619 7.12918 18.0089 7.31915 17.723 7.6687L19.2709 8.93517ZM19.2895 8.91166L19.2895 8.91164L17.7043 7.69222L17.7043 7.69224L19.2895 8.91166ZM19.204 9.00907L19.204 9.00906L17.7898 7.59485L17.7898 7.59485L19.204 9.00907ZM19.2778 8.92666L19.2778 8.92665L17.716 7.67726L17.716 7.67727L19.2778 8.92666ZM19.2051 9.01553C19.1984 9.0249 19.1967 9.02641 19.2105 9.00921C19.2235 8.99307 19.2414 8.97113 19.2708 8.9352L17.7229 7.66873C17.6782 7.72334 17.6241 7.78877 17.584 7.84421L19.2051 9.01553ZM19.2051 9.01552V9.01552L17.584 7.84422C16.7121 9.05098 17.4172 10.7533 18.8871 10.9901L19.2051 9.01552ZM19.3084 9.02586C19.2622 9.02124 19.234 9.01841 19.2134 9.01617C19.1915 9.01378 19.1937 9.01369 19.2051 9.01552L18.8871 10.9901C18.9546 11.001 19.0392 11.0089 19.1094 11.0159L19.3084 9.02586ZM21.472 9.751C21.1538 9.40512 20.7652 9.25674 20.4177 9.17666C20.0974 9.10284 19.7053 9.06554 19.3084 9.02586L19.1094 11.0159C19.5588 11.0609 19.8013 11.087 19.9686 11.1256C20.1086 11.1578 20.0604 11.1707 20 11.105L21.472 9.751ZM21.4883 9.769L21.4774 9.75698L19.9945 11.099L20.0054 11.111L21.4883 9.769ZM22 12C22 11.6012 22.0019 11.2073 21.9603 10.8812C21.9152 10.5274 21.8062 10.126 21.4937 9.77504L20 11.105C19.9406 11.0383 19.9582 10.9917 19.9764 11.1342C19.9981 11.3044 20 11.5484 20 12H22ZM21.4937 14.225C21.8062 13.874 21.9152 13.4726 21.9603 13.1188C22.0019 12.7927 22 12.3988 22 12H20C20 12.4516 19.9981 12.6956 19.9764 12.8658C19.9582 13.0083 19.9406 12.9617 20 12.895L21.4937 14.225ZM21.4774 14.243L21.4883 14.231L20.0054 12.889L19.9946 12.901L21.4774 14.243ZM19.3084 14.9741C19.7053 14.9345 20.0974 14.8972 20.4177 14.8233C20.7652 14.7433 21.1538 14.5949 21.472 14.249L20 12.895C20.0604 12.8293 20.1086 12.8422 19.9686 12.8744C19.8013 12.913 19.5588 12.9391 19.1094 12.9841L19.3084 14.9741ZM19.2054 14.9844C19.1941 14.9863 19.1919 14.9862 19.2138 14.9838C19.2343 14.9816 19.2624 14.9787 19.3084 14.9741L19.1094 12.9841C19.0394 12.9911 18.9552 12.999 18.888 13.0098L19.2054 14.9844ZM19.2055 14.9844L19.2055 14.9844L18.8879 13.0098C17.4175 13.2463 16.7121 14.9493 17.5847 16.1562L19.2055 14.9844ZM19.2709 15.0644C19.2416 15.0286 19.2238 15.0068 19.2109 14.9907C19.1971 14.9736 19.1987 14.9751 19.2055 14.9844L17.5847 16.1562C17.6246 16.2114 17.6785 16.2765 17.723 16.3309L19.2709 15.0644ZM20.288 17.107C20.3076 16.6375 20.1377 16.2578 19.9486 15.9554C19.7743 15.6767 19.5234 15.3731 19.2709 15.0644L17.723 16.3309C18.009 16.6804 18.162 16.8704 18.253 17.0159C18.3292 17.1378 18.286 17.1128 18.2897 17.0236L20.288 17.107ZM20.2868 17.1312L20.2876 17.115L18.2901 17.0155L18.2893 17.0317L20.2868 17.1312ZM19.0711 19.0707C19.3531 18.7887 19.633 18.5115 19.8341 18.2515C20.0524 17.9695 20.2592 17.6086 20.2864 17.1394L18.2897 17.0236C18.2949 16.9344 18.3403 16.9139 18.2524 17.0275C18.1473 17.1633 17.9762 17.3371 17.6569 17.6564L19.0711 19.0707ZM19.0711 19.0707L19.0711 19.0707L17.6569 17.6564L17.6569 17.6565L19.0711 19.0707ZM19.0711 19.0707L19.0711 19.0707L17.6569 17.6565L17.6569 17.6565L19.0711 19.0707ZM17.1398 20.286C17.609 20.2587 17.9699 20.052 18.2519 19.8337C18.5119 19.6326 18.7891 19.3527 19.0711 19.0707L17.6569 17.6565C17.3375 17.9758 17.1637 18.1469 17.0279 18.252C16.9143 18.3399 16.9348 18.2945 17.024 18.2893L17.1398 20.286ZM17.1155 20.2872L17.1317 20.2864L17.0321 18.2889L17.0159 18.2897L17.1155 20.2872ZM15.0648 19.2705C15.3735 19.523 15.6772 19.7739 15.9558 19.9482C16.2582 20.1373 16.6379 20.3072 17.1074 20.2876L17.024 18.2893C17.1132 18.2856 17.1382 18.3287 17.0163 18.2526C16.8708 18.1615 16.6808 18.0086 16.3313 17.7226L15.0648 19.2705ZM15.0663 19.2717L15.0664 19.2718L16.3297 17.7213L16.3296 17.7212L15.0663 19.2717ZM14.9845 19.2048C14.9752 19.198 14.9736 19.1964 14.9908 19.2102C15.0069 19.2231 15.0288 19.2411 15.0647 19.2704L16.3312 17.7225C16.2767 17.6779 16.2113 17.6237 16.1558 17.5837L14.9845 19.2048ZM14.9845 19.2048V19.2048L16.1558 17.5837C14.9491 16.7117 13.2467 17.4169 13.01 18.8867L14.9845 19.2048ZM14.9741 19.3084C14.9788 19.2621 14.9816 19.2338 14.9839 19.2131C14.9863 19.1911 14.9864 19.1933 14.9845 19.2048L13.01 18.8868C12.9991 18.9543 12.9911 19.039 12.9841 19.1094L14.9741 19.3084ZM14.9741 19.3084L14.9741 19.3084L12.9841 19.1094L12.9841 19.1094L14.9741 19.3084ZM14.249 21.472C14.5949 21.1538 14.7433 20.7652 14.8233 20.4177C14.8972 20.0974 14.9345 19.7053 14.9741 19.3084L12.9841 19.1094C12.9391 19.5588 12.913 19.8013 12.8744 19.9686C12.8422 20.1086 12.8293 20.0604 12.895 20L14.249 21.472ZM14.231 21.4883L14.243 21.4774L12.901 19.9945L12.889 20.0054L14.231 21.4883ZM12 22C12.3988 22 12.7927 22.0019 13.1188 21.9603C13.4726 21.9152 13.874 21.8062 14.225 21.4937L12.895 20C12.9617 19.9406 13.0083 19.9582 12.8658 19.9764C12.6956 19.9981 12.4516 20 12 20V22ZM9.77504 21.4937C10.126 21.8062 10.5274 21.9152 10.8812 21.9603C11.2073 22.0019 11.6012 22 12 22V20C11.5484 20 11.3044 19.9981 11.1342 19.9764C10.9917 19.9582 11.0383 19.9406 11.105 20L9.77504 21.4937ZM9.75698 21.4774L9.769 21.4883L11.111 20.0054L11.099 19.9945L9.75698 21.4774ZM9.02586 19.3084C9.06554 19.7053 9.10284 20.0974 9.17666 20.4177C9.25674 20.7652 9.40512 21.1538 9.751 21.472L11.105 20C11.1707 20.0604 11.1578 20.1086 11.1256 19.9686C11.087 19.8013 11.0609 19.5588 11.0159 19.1094L9.02586 19.3084ZM9.02284 19.2713L9.02284 19.2713L11.0189 19.1466L11.0189 19.1465L9.02284 19.2713ZM9.01552 19.2051C9.01369 19.1937 9.01378 19.1915 9.01617 19.2134C9.01841 19.234 9.02124 19.2622 9.02586 19.3084L11.0159 19.1094C11.0089 19.0392 11.0009 18.9546 10.9901 18.887L9.01552 19.2051ZM9.01552 19.2051L9.01553 19.2051L10.9901 18.887C10.7533 17.4172 9.051 16.7121 7.84425 17.584L9.01552 19.2051ZM8.9352 19.2708C8.97113 19.2415 8.99308 19.2235 9.00921 19.2105C9.02642 19.1967 9.02489 19.1984 9.01551 19.2051L7.84426 17.584C7.78879 17.6241 7.72333 17.6783 7.66872 17.7229L8.9352 19.2708ZM8.92661 19.2778L8.92666 19.2778L7.67727 17.716L7.67722 17.7161L8.92661 19.2778ZM6.89255 20.288C7.3621 20.3076 7.74177 20.1377 8.04415 19.9486C8.32282 19.7743 8.6265 19.5234 8.93516 19.2709L7.66868 17.723C7.31913 18.009 7.12915 18.162 6.98363 18.253C6.86181 18.3292 6.88677 18.286 6.97598 18.2897L6.89255 20.288ZM6.86832 20.2868L6.88451 20.2876L6.98402 18.2901L6.96782 18.2893L6.86832 20.2868ZM4.92891 19.0711C5.21091 19.3531 5.48811 19.633 5.74805 19.8341C6.0301 20.0524 6.39099 20.2592 6.86016 20.2864L6.97598 18.2897C7.06512 18.2949 7.08566 18.3403 6.97203 18.2524C6.83629 18.1474 6.66248 17.9762 6.34312 17.6569L4.92891 19.0711ZM4.9289 19.0711L4.92891 19.0711L6.34313 17.6569L6.34312 17.6569L4.9289 19.0711ZM4.89885 19.0397L4.89886 19.0397L6.37317 17.6882L6.37316 17.6882L4.89885 19.0397ZM3.7136 17.1398C3.74081 17.609 3.94759 17.9699 4.16585 18.2519C4.367 18.5119 4.6469 18.7891 4.9289 19.0711L6.34311 17.6569C6.02375 17.3375 5.85262 17.1637 5.74758 17.0279C5.65965 16.9143 5.70507 16.9348 5.71024 17.024L3.7136 17.1398ZM3.71235 17.1155L3.71316 17.1317L5.71068 17.0321L5.70987 17.0159L3.71235 17.1155ZM4.72908 15.0648C4.47654 15.3735 4.22562 15.6772 4.05133 15.9558C3.86222 16.2582 3.69238 16.6379 3.71198 17.1074L5.71024 17.024C5.71397 17.1132 5.67082 17.1382 5.747 17.0163C5.83801 16.8708 5.991 16.6808 6.277 16.3313L4.72908 15.0648ZM4.72131 15.0744L4.72126 15.0745L6.28481 16.3216L6.28486 16.3216L4.72131 15.0744ZM4.79481 14.9845C4.80158 14.9751 4.80323 14.9736 4.78941 14.9908C4.77645 15.0069 4.75851 15.0288 4.72914 15.0647L6.27703 16.3312C6.32171 16.2766 6.37587 16.2112 6.41593 16.1558L4.79481 14.9845ZM4.79482 14.9845H4.79482L6.41593 16.1558C7.28787 14.949 6.58274 13.2467 5.11286 13.0099L4.79482 14.9845ZM12 16.6C14.5405 16.6 16.6 14.5405 16.6 12H14.6C14.6 13.4359 13.4359 14.6 12 14.6V16.6ZM7.4 12C7.4 14.5405 9.45949 16.6 12 16.6V14.6C10.5641 14.6 9.4 13.4359 9.4 12H7.4ZM12 7.4C9.45949 7.4 7.4 9.45949 7.4 12H9.4C9.4 10.5641 10.5641 9.4 12 9.4V7.4ZM16.6 12C16.6 9.45949 14.5405 7.4 12 7.4V9.4C13.4359 9.4 14.6 10.5641 14.6 12H16.6Z" fill="white"/>
</svg>
