<svg width="43" height="43" viewBox="0 0 43 43" fill="none" xmlns="http://www.w3.org/2000/svg">
<mask id="mask0_337_4538" style="mask-type:alpha" maskUnits="userSpaceOnUse" x="0" y="0" width="43" height="43">
<path fill-rule="evenodd" clip-rule="evenodd" d="M0 0H42.9069V42.7959H0V0Z" fill="white"/>
</mask>
<g mask="url(#mask0_337_4538)">
<path fill-rule="evenodd" clip-rule="evenodd" d="M8.7518 33.8332C8.65306 33.7303 8.5547 33.627 8.45672 33.5237V30.7089C8.4571 26.9842 10.0293 23.6361 12.5478 21.2545L12.549 21.2557C17.0152 16.8428 25.3389 16.3597 30.0045 20.9114C30.8128 20.1081 31.5165 19.1973 32.093 18.2015C26.2093 12.6922 15.984 13.221 10.3694 18.6266L10.3671 18.6293C9.42889 19.4962 8.58748 20.4688 7.86732 21.5233C7.86732 21.5233 7.86732 21.5237 7.86694 21.5237V21.5241C6.46854 23.5854 5.53297 25.9781 5.1929 28.5584C3.22264 24.2183 3.22226 18.6922 5.191 14.3517C5.51238 16.7883 5.81051 17.9842 7.48226 20.8279C8.17231 19.8508 8.95729 18.9423 9.83072 18.1245C8.764 16.205 8.59435 14.3354 8.45672 12.1966V9.38225C15.2352 1.85653 27.6736 1.85767 34.4502 9.38187V11.9629C34.4502 14.3144 33.8391 16.5248 32.7743 18.4429C28.9763 25.6144 18.8978 27.5115 12.9096 21.7742C12.0907 22.5801 11.3862 23.4886 10.8136 24.4772C20.4514 33.2255 36.0735 27.0894 37.6923 14.2995C39.6847 18.6461 39.6911 24.1989 37.7159 28.5542C37.3945 26.1173 36.7388 24.0353 35.3755 21.9636C34.6946 22.9411 33.9058 23.8493 33.0278 24.6666C34.6065 27.2949 34.4807 30.5465 34.4502 33.5244C27.8414 40.914 15.5341 41.0639 8.7518 33.8332ZM21.454 -0.00012207C9.6237 -0.00012207 0 9.62282 0 21.4528C1.17804 49.9137 41.7327 49.9068 42.9069 21.4528C42.9069 9.62282 33.2828 -0.00012207 21.454 -0.00012207Z" fill="white"/>
</g>
</svg>
