<svg width="27" height="38" viewBox="0 0 27 38" fill="none" xmlns="http://www.w3.org/2000/svg">
<g opacity="0.4">
<path d="M6.45996 28.8613V33.4805C6.45996 33.9818 6.35579 34.4294 6.14746 34.8232C5.94238 35.2171 5.63151 35.528 5.21484 35.7559C4.79818 35.9837 4.27409 36.0977 3.64258 36.0977C2.7474 36.0977 2.0638 35.8584 1.5918 35.3799C1.12305 34.8981 0.888672 34.2585 0.888672 33.4609V28.8613H1.89453V33.4219C1.89453 34.0241 2.04427 34.4782 2.34375 34.7842C2.64648 35.0902 3.0957 35.2432 3.69141 35.2432C4.10156 35.2432 4.43685 35.1699 4.69727 35.0234C4.95768 34.8737 5.14974 34.6637 5.27344 34.3936C5.40039 34.1201 5.46387 33.7962 5.46387 33.4219V28.8613H6.45996ZM11.748 34.4961C11.748 34.8444 11.6618 35.139 11.4893 35.3799C11.32 35.6175 11.0726 35.7965 10.7471 35.917C10.4215 36.0374 10.0309 36.0977 9.5752 36.0977C9.19759 36.0977 8.87207 36.0684 8.59863 36.0098C8.3252 35.9544 8.0778 35.873 7.85645 35.7656V34.8965C8.09408 35.0104 8.36914 35.1113 8.68164 35.1992C8.99414 35.2871 9.30013 35.3311 9.59961 35.3311C10.0195 35.3311 10.3223 35.2643 10.5078 35.1309C10.6966 34.9974 10.791 34.8167 10.791 34.5889C10.791 34.4554 10.7536 34.3382 10.6787 34.2373C10.6038 34.1331 10.472 34.0306 10.2832 33.9297C10.0977 33.8255 9.83073 33.7067 9.48242 33.5732C9.14062 33.4398 8.84766 33.3063 8.60352 33.1729C8.36263 33.0394 8.17871 32.8783 8.05176 32.6895C7.9248 32.5007 7.86133 32.2565 7.86133 31.957C7.86133 31.4915 8.04688 31.1367 8.41797 30.8926C8.79232 30.6452 9.28548 30.5215 9.89746 30.5215C10.223 30.5215 10.529 30.554 10.8154 30.6191C11.1051 30.6842 11.3818 30.7754 11.6455 30.8926L11.3281 31.6494C11.0938 31.5485 10.8529 31.4655 10.6055 31.4004C10.3581 31.332 10.1058 31.2979 9.84863 31.2979C9.51335 31.2979 9.25618 31.3516 9.07715 31.459C8.90137 31.5664 8.81348 31.7145 8.81348 31.9033C8.81348 32.0498 8.85417 32.1719 8.93555 32.2695C9.02018 32.3672 9.16016 32.4632 9.35547 32.5576C9.55078 32.6488 9.81445 32.7578 10.1465 32.8848C10.4753 33.0085 10.7585 33.137 10.9961 33.2705C11.237 33.404 11.4225 33.5667 11.5527 33.7588C11.6829 33.9508 11.748 34.1966 11.748 34.4961ZM15.1318 30.5215C15.6006 30.5215 16.0026 30.6224 16.3379 30.8242C16.6732 31.0228 16.9303 31.3044 17.1094 31.6689C17.2884 32.0335 17.3779 32.4632 17.3779 32.958V33.5146H13.7256C13.7354 34.0908 13.8835 34.5335 14.1699 34.8428C14.4564 35.1488 14.8584 35.3018 15.376 35.3018C15.7178 35.3018 16.0221 35.2692 16.2891 35.2041C16.556 35.139 16.8327 35.043 17.1191 34.916V35.7412C16.849 35.8649 16.5771 35.9544 16.3037 36.0098C16.0335 36.0684 15.7096 36.0977 15.332 36.0977C14.8112 36.0977 14.3538 35.9935 13.96 35.7852C13.5693 35.5768 13.265 35.2692 13.0469 34.8623C12.8288 34.4521 12.7197 33.9476 12.7197 33.3486C12.7197 32.7562 12.819 32.25 13.0176 31.8301C13.2161 31.4069 13.4961 31.083 13.8574 30.8584C14.2188 30.6338 14.6436 30.5215 15.1318 30.5215ZM15.127 31.2832C14.7298 31.2832 14.4108 31.4134 14.1699 31.6738C13.929 31.931 13.7874 32.3005 13.7451 32.7822H16.3916C16.3883 32.486 16.3411 32.2256 16.25 32.001C16.1589 31.7764 16.0205 31.6006 15.835 31.4736C15.6527 31.3467 15.4167 31.2832 15.127 31.2832ZM21.3037 30.5215C21.4014 30.5215 21.5072 30.528 21.6211 30.541C21.735 30.5508 21.8327 30.5638 21.9141 30.5801L21.8115 31.4932C21.7334 31.4736 21.6423 31.4574 21.5381 31.4443C21.4372 31.4313 21.3428 31.4248 21.2549 31.4248C21.0465 31.4248 20.848 31.4639 20.6592 31.542C20.4704 31.6201 20.3044 31.734 20.1611 31.8838C20.0179 32.0303 19.9056 32.2109 19.8242 32.4258C19.7428 32.6374 19.7021 32.8799 19.7021 33.1533V36H18.7158V30.6191H19.5068L19.624 31.5908H19.668C19.7786 31.3955 19.9121 31.2165 20.0684 31.0537C20.2279 30.891 20.4102 30.7624 20.6152 30.668C20.8236 30.5703 21.0531 30.5215 21.3037 30.5215ZM26.4648 34.4961C26.4648 34.8444 26.3786 35.139 26.2061 35.3799C26.0368 35.6175 25.7894 35.7965 25.4639 35.917C25.1383 36.0374 24.7477 36.0977 24.292 36.0977C23.9144 36.0977 23.5889 36.0684 23.3154 36.0098C23.042 35.9544 22.7946 35.873 22.5732 35.7656V34.8965C22.8109 35.0104 23.0859 35.1113 23.3984 35.1992C23.7109 35.2871 24.0169 35.3311 24.3164 35.3311C24.7363 35.3311 25.0391 35.2643 25.2246 35.1309C25.4134 34.9974 25.5078 34.8167 25.5078 34.5889C25.5078 34.4554 25.4704 34.3382 25.3955 34.2373C25.3206 34.1331 25.1888 34.0306 25 33.9297C24.8145 33.8255 24.5475 33.7067 24.1992 33.5732C23.8574 33.4398 23.5645 33.3063 23.3203 33.1729C23.0794 33.0394 22.8955 32.8783 22.7686 32.6895C22.6416 32.5007 22.5781 32.2565 22.5781 31.957C22.5781 31.4915 22.7637 31.1367 23.1348 30.8926C23.5091 30.6452 24.0023 30.5215 24.6143 30.5215C24.9398 30.5215 25.2458 30.554 25.5322 30.6191C25.8219 30.6842 26.0986 30.7754 26.3623 30.8926L26.0449 31.6494C25.8105 31.5485 25.5697 31.4655 25.3223 31.4004C25.0749 31.332 24.8226 31.2979 24.5654 31.2979C24.2301 31.2979 23.973 31.3516 23.7939 31.459C23.6182 31.5664 23.5303 31.7145 23.5303 31.9033C23.5303 32.0498 23.571 32.1719 23.6523 32.2695C23.737 32.3672 23.877 32.4632 24.0723 32.5576C24.2676 32.6488 24.5312 32.7578 24.8633 32.8848C25.1921 33.0085 25.4753 33.137 25.7129 33.2705C25.9538 33.404 26.1393 33.5667 26.2695 33.7588C26.3997 33.9508 26.4648 34.1966 26.4648 34.4961Z" fill="white"/>
<path d="M21.7274 20.4471C21.2716 19.1713 20.2672 18.0439 18.8701 17.2399C17.4729 16.4358 15.7611 16 14 16C12.2389 16 10.5271 16.4358 9.12991 17.2399C7.73276 18.0439 6.72839 19.1713 6.27259 20.4471" stroke="white" stroke-width="2" stroke-linecap="round"/>
<circle cx="14" cy="8" r="4" stroke="white" stroke-width="2" stroke-linecap="round"/>
</g>
</svg>
